<?xml version="1.0" encoding="utf-8"?>
<!-- Generator: Adobe Illustrator 16.0.0, SVG Export Plug-In . SVG Version: 6.00 Build 0)  -->
<!DOCTYPE svg PUBLIC "-//W3C//DTD SVG 1.1//EN" "http://www.w3.org/Graphics/SVG/1.1/DTD/svg11.dtd">
<svg version="1.1" id="Layer_1" xmlns="http://www.w3.org/2000/svg" xmlns:xlink="http://www.w3.org/1999/xlink" x="0px" y="0px"
	 width="2000px" height="400px" viewBox="0 0 2000 400" enable-background="new 0 0 2000 400" xml:space="preserve">
<g id="Layer_2">
	<path fill="#FFFFFF" d="M1443.313,307.377c-14.77,32.141-36.973,76.709-83.318,76.709c-42.271,0-53.539-30.199-53.539-79.973
		v-96.825c0-4.386,0.875-27.526-16.158-29.569c-18.418-2.197-65.959,14.014-65.959,119.492c0,20.504-19.248,4.658-19.248-17.297
		c0-79.582,31.633-159.329,117.338-146.526c37.914,5.652,39.1,44.102,38.342,65.531c0,0,0.064,114.494,0.064,119.927
		c0,25.896,11.908,30.527,32.479,17.105c14.826-9.685,25.186-35.242,30.055-47.597c1.424-3.563,4.42-4.612,7.748-3.856
		C1438.738,286.113,1448.027,297.057,1443.313,307.377z"/>
	<path fill="#FFFFFF" d="M1814.141,67.292h147.492c3.064,0,2.609,29.032-0.201,29.032h-147.49
		C1810.857,96.324,1811.313,67.292,1814.141,67.292z"/>
	<path fill="#FFFFFF" d="M1992.252,307.906c-10.67,28.877-26.9,76.114-78.434,76.114c-14.498,0-37.475-5.014-47.996-36.952
		c-3.191-9.693-5.232-21.894-5.525-37.193v-0.055c-0.074-1.32-0.074-2.681-0.074-4.029V212.24c0-1.979,0.199-4.485,0-6.93V16.651
		h53.814v286.634c0,1.985-0.818,27.098,14.662,28.293c14.17,1.082,26.734-13.951,37.146-36.07
		C1971.299,284.008,1997.904,292.645,1992.252,307.906z"/>
	<path fill="#FFFFFF" d="M1224.338,16.651v367.375c0,0-1.404,0-28.176,0c-25.795,0-24.908,0-24.908,0V16.651H1224.338z"/>
	<path fill="#FFFFFF" d="M1508.689,336.783c71.494,9.473,99.713-51.107,99.713-51.107l23.908,17.307
		c0,0-28.027,81.031-110.709,81.031c-37.988,0-129.953-17.299-123.686-148.193c2.051-42.927,27.088-103.879,94.178-103.879
		c86.365,0,106.59,82.245,61.639,126.029c-37.037,36.088-102.543,21.398-102.543,21.398l-6.6-30.08c0,0,48.381,16.715,72.678-9.291
		c21.365-22.856,13.941-66.123-19.576-66.123c-28.721,0-49.164,36.262-49.164,63.459
		C1448.531,237.332,1442.857,328.057,1508.689,336.783z"/>
</g>
<g id="Layer_5">
	<path fill="#FFFFFF" d="M1197.057,306.916c-10.439,28.887-36.471,77.104-86.818,77.104c-14.18,0-36.619-5.014-46.902-36.952
		c-3.129-9.693-5.125-21.894-5.416-37.193v-0.055c-0.064-1.32-0.064-2.681-0.064-4.029V212.24c0-1.979,0.193-4.485,0-6.93V16.651
		h54.27v286.634c0,1.985-0.801,27.098,14.334,28.293c13.859,1.082,34.621-14.933,44.799-37.051
		C1176.559,283.018,1202.563,291.662,1197.057,306.916z"/>
	<path fill="#FFFFFF" d="M832.147,307.906c-10.682,28.877-27.111,76.114-78.639,76.114c-14.506,0-37.479-5.014-47.996-36.952
		c-3.197-9.693-5.242-21.886-5.539-37.185v-0.063c-0.067-1.32-0.067-2.673-0.067-4.029V212.24c0-1.979,0.2-4.485,0-6.93v-73.498
		h54.015v182.04c0,1.979-0.827,27.099,14.669,28.281c14.174,1.096,26.734-17.914,37.152-40.024
		C811.18,290.6,837.788,292.645,832.147,307.906z"/>
	<path fill="#FFFFFF" d="M609.268,336.783c71.5,9.473,99.896-51.107,99.896-51.107l23.902,17.307c0,0-28.021,81.031-110.711,81.031
		c-37.979,0-129.939-17.299-123.679-148.193c2.056-42.927,27.089-103.879,94.174-103.879c62.859,0,66.981,54.024,69.18,78.204
		c0.516,5.674-27.206,9.85-29.118,1.645c-5.024-21.494-8.821-46.686-34.481-47.25c-28.711-0.629-49.323,45.598-49.323,72.795
		C549.108,237.332,543.44,328.057,609.268,336.783z"/>
	<path fill="#FFFFFF" d="M548.985,209.861c-7.996-7.496-6.849-21.529-13.394-30.282c-16.13,11.233-39.444,25.138-75.711,22.012
		c-14.278-50.25-47.988-64.136-74.553-68.25c-0.537,0.047-27.745-4.659-43.137,4.879c-10.454,6.473-15.044,18.044-15.387,29.032
		c0.355,6.902,5.831,39.982,80.021,56.212c4.736,12.153,5.831,12.774,6.182,37.492c0.505,36.024-15.246,94.36-49.038,93.953
		c-28.324-0.338-37.206-33.107-41.446-55.138c-2.926-15.198-4.872-30.92-2.58-46.246c2.613-17.498,3.027-21,12.71-38.715
		c0,0-30.025-30.836-40.461-33.592c-11.979,9.519-27.385,29.471-27.385,76.709c0,112.08,69.756,125.992,100.447,125.992
		c31.417,0,101.729-11.705,101.729-125.992c0-7.131-0.528-17.816-1.031-24.164C518.664,233.668,532.508,223.373,548.985,209.861z
		 M375.917,183.191c-4.057-1.95-18.441-9.555-16.508-15.254c3.734-11.023,19.804-1.131,25.16,3.602
		c6.248,5.525,11.33,12.83,13.601,18.955C393.063,189.072,380.69,185.48,375.917,183.191z"/>
	<path fill="#FFFFFF" d="M243.171,262.854c0.743,51.106-27.87,101.876-79.672,116.409c-14.932,4.193-30.531,4.758-45.95,4.758
		c-57.092,0-90.656-26.942-106.311-59.34c-15.661-32.403,16.354-58.51,21.854-47.239c9.826,20.106,33.911,67.034,94.9,57.963
		c39.869-5.916,62.344-46.529,51.749-84.532c-9.783-35.096-48.849-51.535-77.018-69.105c-28.955-18.073-72.917-46.502-76.182-84.177
		C22.333,49.048,44.19,21.947,91.805,16.952c54.315-5.709,101.528,13.521,116.678,22.867c7.797,4.805,0.451,27.308-8.242,24.445
		c-24.177-7.959-90.605-32.506-110.077,0.592c-12.583,21.393,2.252,36.637,37.28,61.738c35.103,25.156,88.38,46.566,106.013,88.782
		C239.768,230.477,242.939,246.689,243.171,262.854z"/>
	<path fill="#FFFFFF" d="M762.8,67.292c0,19.704-15.979,35.679-35.683,35.679c-19.707,0-35.684-15.975-35.684-35.679
		c0-19.711,15.977-35.687,35.684-35.687C746.822,31.605,762.8,47.58,762.8,67.292z"/>
	<path fill="#FFFFFF" d="M1058.018,288.357c-2.371,6.027-6.064,13.843-10.879,21.464v0.055c-5.178,8.051-11.58,15.766-19.184,20.744
		c-21.428,13.979-34.666,8.371-34.666-20.404V131.812l-58.434,0.055l-0.214,13.503c-7.877-5.144-17.799-10.505-39.212-12.674
		c-20.77-2.106-44.398,2.899-65.827,25.22c-20.204,20.999-28.681,58.474-28.681,88.635c0,13.521-0.086,35.014,2.571,56.141
		c9.916,78.869,70.752,82.826,91.477,80.24c29.167-3.647,38.422-15.895,45.112-20.771c1.909,2.799,10.007,21.928,44.622,21.928
		c27.497,0,50.727-16.68,67.979-37.02c10.979-12.896,19.539-27.226,25.275-39.689
		C1084.723,292.607,1062.73,276.521,1058.018,288.357z M898.001,349.965c-37.082,0-44.669-46.162-44.669-92.049
		c0-44.563,7.998-97.503,42.76-97.503c34.452,0,41.469,37.576,41.469,92.62C937.561,312.365,931.953,349.965,898.001,349.965z"/>
	<path fill="#FFFFFF" d="M1861.256,288.357c-2.373,6.027-6.066,13.843-10.881,21.464v0.055
		c-5.178,8.051-11.578,15.766-19.186,20.744c-21.426,13.979-34.938,8.371-34.938-20.404V131.812l-58.154,0.055l-0.219,13.503
		c-7.879-5.144-17.797-10.505-39.205-12.674c-20.771-2.106-44.406,2.899-65.83,25.22c-20.209,20.999-28.688,58.474-28.688,88.635
		c0,13.521-0.08,35.014,2.57,56.141c9.922,78.869,70.756,82.826,91.482,80.24c29.168-3.647,38.424-15.895,45.104-20.771
		c1.914,2.799,10.012,21.928,44.621,21.928c27.504,0,50.73-16.68,67.984-37.02c10.979-12.896,19.539-27.226,25.275-39.689
		C1887.959,292.607,1865.967,276.521,1861.256,288.357z M1701.244,349.965c-37.094,0-44.68-46.162-44.68-92.049
		c0-44.563,8.006-97.503,42.764-97.503c34.447,0,41.469,37.576,41.469,92.62C1740.797,312.365,1735.188,349.965,1701.244,349.965z"
		/>
</g>
</svg>
