<?xml version="1.0" encoding="utf-8"?>
<!-- Generator: Adobe Illustrator 16.0.0, SVG Export Plug-In . SVG Version: 6.00 Build 0)  -->
<!DOCTYPE svg PUBLIC "-//W3C//DTD SVG 1.1//EN" "http://www.w3.org/Graphics/SVG/1.1/DTD/svg11.dtd">
<svg version="1.1" id="Layer_1" xmlns="http://www.w3.org/2000/svg" xmlns:xlink="http://www.w3.org/1999/xlink" x="0px" y="0px"
	 width="2000px" height="500px" viewBox="0 0 2000 500" enable-background="new 0 0 2000 500" xml:space="preserve">
<path fill="#686868" d="M1402.102,347.34c-13.401,29.155-33.54,69.583-75.583,69.583c-38.344,0-48.567-27.394-48.567-72.545v-87.832
	c0-3.977,0.794-24.969-14.657-26.821c-16.707-1.993-59.832,12.712-59.832,108.392c0,18.602-17.461,4.226-17.461-15.69
	c0-72.189,28.692-144.528,106.44-132.916c34.391,5.128,35.468,40.007,34.779,59.445c0,0,0.059,103.861,0.059,108.789
	c0,23.491,10.804,27.693,29.462,15.516c13.448-8.783,22.846-31.967,27.262-43.175c1.291-3.232,4.012-4.184,7.03-3.497
	C1397.947,328.053,1406.375,337.977,1402.102,347.34z"/>
<path fill="#686868" d="M1738.486,129.553h133.794c2.777,0,2.365,26.335-0.182,26.335h-133.795
	C1735.509,155.888,1735.923,129.553,1738.486,129.553z"/>
<path fill="#686868" d="M1900.055,347.818c-9.679,26.194-24.399,69.048-71.147,69.048c-13.151,0-33.995-4.55-43.539-33.523
	c-2.896-8.792-4.748-19.857-5.014-33.737v-0.049c-0.066-1.199-0.066-2.432-0.066-3.655v-84.864c0-1.794,0.182-4.068,0-6.285V83.616
	h48.817v260.009c0,1.803-0.744,24.582,13.299,25.666c12.854,0.983,24.25-12.656,33.698-32.72
	C1881.046,326.141,1905.183,333.974,1900.055,347.818z"/>
<path fill="#686868" d="M1203.462,83.616v333.25c0,0-1.273,0-25.559,0c-23.398,0-22.596,0-22.596,0V83.616H1203.462z"/>
<path fill="#686868" d="M1461.403,374.013c64.854,8.594,90.453-46.359,90.453-46.359l21.688,15.698
	c0,0-25.426,73.507-100.427,73.507c-34.458,0-117.882-15.69-112.198-134.432c1.86-38.939,24.573-94.231,85.432-94.231
	c78.343,0,96.69,74.604,55.912,114.322c-33.597,32.738-93.017,19.413-93.017,19.413l-5.988-27.287c0,0,43.888,15.161,65.928-8.428
	c19.382-20.735,12.648-59.981-17.758-59.981c-26.052,0-44.597,32.894-44.597,57.566
	C1406.831,283.801,1401.687,366.1,1461.403,374.013z"/>
<path fill="#686868" d="M1178.714,346.922c-9.47,26.202-33.084,69.944-78.757,69.944c-12.861,0-33.217-4.55-42.548-33.523
	c-2.836-8.792-4.647-19.857-4.911-33.737v-0.049c-0.059-1.199-0.059-2.432-0.059-3.655v-84.864c0-1.794,0.174-4.068,0-6.285V83.616
	h49.229v260.009c0,1.803-0.728,24.582,13.002,25.666c12.572,0.983,31.405-13.545,40.637-33.609
	C1160.12,325.243,1183.711,333.084,1178.714,346.922z"/>
<path fill="#686868" d="M847.696,347.818c-9.69,26.194-24.595,69.048-71.334,69.048c-13.159,0-33.999-4.55-43.54-33.523
	c-2.899-8.792-4.755-19.85-5.025-33.729v-0.057c-0.062-1.199-0.062-2.424-0.062-3.655v-84.864c0-1.794,0.182-4.068,0-6.285V188.08
	h48.998v165.133c0,1.794-0.749,24.581,13.308,25.655c12.858,0.993,24.251-16.253,33.701-36.309
	C828.677,332.12,852.812,333.974,847.696,347.818z"/>
<path fill="#686868" d="M645.518,374.013c64.858,8.594,90.618-46.359,90.618-46.359l21.683,15.698c0,0-25.417,73.507-100.427,73.507
	c-34.454,0-117.872-15.69-112.193-134.432c1.865-38.939,24.573-94.231,85.428-94.231c57.021,0,60.76,49.006,62.753,70.94
	c0.467,5.145-24.677,8.934-26.414,1.489c-4.557-19.495-8.002-42.348-31.277-42.86c-26.046-0.571-44.743,41.363-44.743,66.036
	C590.944,283.801,585.804,366.1,645.518,374.013z"/>
<path fill="#686868" d="M590.833,258.879c-7.253-6.797-6.211-19.527-12.15-27.468c-14.632,10.19-35.781,22.803-68.679,19.967
	c-12.953-45.582-43.532-58.179-67.629-61.909c-0.488,0.042-25.169-4.227-39.131,4.425c-9.483,5.873-13.647,16.369-13.957,26.335
	c0.323,6.261,5.289,36.269,72.587,50.989c4.296,11.025,5.289,11.588,5.608,34.012c0.458,32.68-13.83,85.598-44.482,85.226
	c-25.694-0.306-33.75-30.032-37.596-50.016c-2.655-13.786-4.421-28.047-2.341-41.951c2.37-15.872,2.747-19.049,11.53-35.119
	c0,0-27.237-27.972-36.703-30.47c-10.868,8.636-24.842,26.73-24.842,69.585c0,101.669,63.278,114.29,91.119,114.29
	c28.498,0,92.28-10.621,92.28-114.29c0-6.468-0.479-16.162-0.935-21.92C563.327,280.475,575.887,271.139,590.833,258.879z
	 M433.839,234.688c-3.681-1.771-16.728-8.668-14.975-13.838c3.387-10,17.965-1.026,22.824,3.267
	c5.665,5.013,10.276,11.638,12.336,17.196C449.393,240.021,438.169,236.764,433.839,234.688z"/>
<path fill="#686868" d="M313.424,306.952c0.674,46.359-25.28,92.413-72.273,105.598c-13.543,3.803-27.695,4.316-41.682,4.316
	c-51.789,0-82.235-24.442-96.437-53.828c-14.206-29.396,14.834-53.076,19.826-42.854c8.912,18.239,30.76,60.81,86.086,52.58
	c36.166-5.366,56.553-42.208,46.942-76.683c-8.875-31.834-44.312-46.746-69.866-62.686c-26.265-16.393-66.144-42.182-69.105-76.359
	c-3.817-44.035,16.009-68.617,59.201-73.149c49.271-5.177,92.099,12.266,105.841,20.744c7.072,4.359,0.409,24.772-7.477,22.175
	c-21.931-7.221-82.19-29.486-99.854,0.538c-11.414,19.405,2.043,33.234,33.817,56.004c31.843,22.82,80.172,42.241,96.168,80.536
	C310.335,277.579,313.213,292.287,313.424,306.952z"/>
<path fill="#686868" d="M784.791,129.553c0,17.874-14.496,32.365-32.369,32.365c-17.878,0-32.369-14.491-32.369-32.365
	c0-17.883,14.491-32.374,32.369-32.374C770.295,97.18,784.791,111.67,784.791,129.553z"/>
<path fill="#686868" d="M1052.589,330.085c-2.15,5.469-5.5,12.558-9.868,19.472v0.049c-4.697,7.303-10.503,14.301-17.402,18.818
	c-19.437,12.678-31.446,7.592-31.446-18.514V188.08l-53.006,0.049l-0.194,12.25c-7.146-4.665-16.146-9.528-35.57-11.497
	c-18.841-1.911-40.276,2.63-59.713,22.878c-18.329,19.049-26.017,53.043-26.017,80.404c0,12.266-0.079,31.759,2.333,50.923
	c8.995,71.546,64.18,75.135,82.979,72.786c26.459-3.308,34.854-14.416,40.922-18.84c1.732,2.539,9.077,19.89,40.478,19.89
	c24.942,0,46.017-15.126,61.666-33.58c9.958-11.694,17.725-24.696,22.927-36.003
	C1076.814,333.941,1056.864,319.349,1052.589,330.085z M907.435,385.973c-33.639,0-40.52-41.876-40.52-83.501
	c0-40.425,7.253-88.446,38.787-88.446c31.252,0,37.617,34.086,37.617,84.017C943.319,351.862,938.232,385.973,907.435,385.973z"/>
<path fill="#686868" d="M1781.223,330.085c-2.151,5.469-5.501,12.558-9.866,19.472v0.049c-4.7,7.303-10.506,14.301-17.402,18.818
	c-19.437,12.678-31.697,7.592-31.697-18.514V188.08l-52.751,0.049l-0.198,12.25c-7.148-4.665-16.146-9.528-35.567-11.497
	c-18.84-1.911-40.28,2.63-59.718,22.878c-18.328,19.049-26.02,53.043-26.02,80.404c0,12.266-0.075,31.759,2.333,50.923
	c8.998,71.546,64.185,75.135,82.983,72.786c26.459-3.308,34.855-14.416,40.918-18.84c1.735,2.539,9.081,19.89,40.479,19.89
	c24.946,0,46.02-15.126,61.67-33.58c9.957-11.694,17.724-24.696,22.927-36.003C1805.45,333.941,1785.499,319.349,1781.223,330.085z
	 M1636.073,385.973c-33.647,0-40.527-41.876-40.527-83.501c0-40.425,7.261-88.446,38.792-88.446
	c31.247,0,37.615,34.086,37.615,84.017C1671.953,351.862,1666.867,385.973,1636.073,385.973z"/>
</svg>
